<mxfile host="app.diagrams.net" modified="2020-07-25T22:18:30.250Z" agent="5.0 (Macintosh)" etag="LyaJgcfNaZXZYgMwJjZ3" version="13.5.3" type="github">
  <diagram id="wUoBXFSwxUf6GHsxnw4C" name="Page-1">
    <mxGraphModel dx="786" dy="523" grid="1" gridSize="10" guides="1" tooltips="1" connect="1" arrows="1" fold="1" page="1" pageScale="1" pageWidth="1100" pageHeight="850" math="0" shadow="0">
      <root>
        <mxCell id="0" />
        <mxCell id="1" parent="0" />
        <mxCell id="aGzjHegGz21nCACvbfMs-13" style="edgeStyle=orthogonalEdgeStyle;rounded=0;jumpStyle=arc;orthogonalLoop=1;jettySize=auto;html=1;startFill=0;endFill=0;endArrow=none;" edge="1" parent="1" source="aGzjHegGz21nCACvbfMs-1" target="aGzjHegGz21nCACvbfMs-8">
          <mxGeometry relative="1" as="geometry" />
        </mxCell>
        <mxCell id="aGzjHegGz21nCACvbfMs-1" value="OOP" style="rounded=1;whiteSpace=wrap;html=1;fillColor=#ffe6cc;strokeColor=#d79b00;" vertex="1" parent="1">
          <mxGeometry x="210" y="30" width="120" height="50" as="geometry" />
        </mxCell>
        <mxCell id="aGzjHegGz21nCACvbfMs-2" value="Protocols" style="whiteSpace=wrap;html=1;rounded=1;" vertex="1" parent="1">
          <mxGeometry x="600" y="130" width="120" height="60" as="geometry" />
        </mxCell>
        <mxCell id="aGzjHegGz21nCACvbfMs-4" value="Extension" style="whiteSpace=wrap;html=1;rounded=1;" vertex="1" parent="1">
          <mxGeometry x="320" y="300" width="120" height="60" as="geometry" />
        </mxCell>
        <mxCell id="aGzjHegGz21nCACvbfMs-8" value="Polymorthism" style="whiteSpace=wrap;html=1;rounded=1;" vertex="1" parent="1">
          <mxGeometry x="210" y="110" width="120" height="60" as="geometry" />
        </mxCell>
        <mxCell id="aGzjHegGz21nCACvbfMs-9" value="Composition" style="whiteSpace=wrap;html=1;rounded=1;" vertex="1" parent="1">
          <mxGeometry x="440" y="130" width="120" height="60" as="geometry" />
        </mxCell>
        <mxCell id="aGzjHegGz21nCACvbfMs-14" value="" style="edgeStyle=orthogonalEdgeStyle;rounded=0;jumpStyle=arc;orthogonalLoop=1;jettySize=auto;html=1;startFill=0;endArrow=none;endFill=0;" edge="1" parent="1" source="aGzjHegGz21nCACvbfMs-10" target="aGzjHegGz21nCACvbfMs-9">
          <mxGeometry relative="1" as="geometry" />
        </mxCell>
        <mxCell id="aGzjHegGz21nCACvbfMs-15" style="edgeStyle=orthogonalEdgeStyle;rounded=0;jumpStyle=arc;orthogonalLoop=1;jettySize=auto;html=1;startFill=0;endArrow=none;endFill=0;" edge="1" parent="1" source="aGzjHegGz21nCACvbfMs-10" target="aGzjHegGz21nCACvbfMs-2">
          <mxGeometry relative="1" as="geometry" />
        </mxCell>
        <mxCell id="aGzjHegGz21nCACvbfMs-10" value="POP" style="whiteSpace=wrap;html=1;rounded=1;fillColor=#f8cecc;strokeColor=#b85450;" vertex="1" parent="1">
          <mxGeometry x="510" y="20" width="120" height="50" as="geometry" />
        </mxCell>
      </root>
    </mxGraphModel>
  </diagram>
</mxfile>
